# xmcd
#
# Track frame offsets:
#	150
#	14244
#	26898
#	40261
#	55981
#	72577
#	85580
#	100779
#	114597
#	135752
#	150461
#	167758
#	182857
#	199281
#	218504
#	234355
#	258455
#	280311
#	296631
#
# Disc length: 4181 seconds
#
# Revision: 0
# Processed by: cddbd v1.5PL3 Copyright (c) Steve Scherf et al.
# Submitted via: dBpowerAMP V4.0
#
DISCID=13105313
DTITLE=Lorrie Moragn - Color Of Roses
DYEAR=1900
DGENRE=
TTITLE0=Trainwreck Of Emotion
TTITLE1=What Part Of No
TTITLE2=Expect For Monday
TTITLE3=Good As I Was To You
TTITLE4=A Picture Of Me (Without You)
TTITLE5=Go Away
TTITLE6=I Didn't Know My Own Strength
TTITLE7=1-800-Used To Be Me
TTITLE8=Something In Red
TTITLE9=Will You Still Love Me Tomorrow
TTITLE10=Half Enough
TTITLE11=Harper Valley PTA (Live)
TTITLE12=Watch Me
TTITLE13=The Color Of Roses (Live)
TTITLE14=Help Me Make It Throught The NIght (Live)
TTITLE15=Secret Love (Live)
TTITLE16=Good Morning Heartache (Live)
TTITLE17=Fly Me To The Moon
TTITLE18=Mt Favorite Things
EXTD=
EXTT0=
EXTT1=
EXTT2=
EXTT3=
EXTT4=
EXTT5=
EXTT6=
EXTT7=
EXTT8=
EXTT9=
EXTT10=
EXTT11=
EXTT12=
EXTT13=
EXTT14=
EXTT15=
EXTT16=
EXTT17=
EXTT18=
PLAYORDER=
